<svg id="Capa_1" enable-background="new 0 0 512 512" height="512" viewBox="0 0 512 512" width="512" xmlns="http://www.w3.org/2000/svg"><g><g><g><path d="m7.5 336.814h404.065v121.22h-404.065z" fill="#a2f4c1"/></g><g><path d="m132.76 296.408h60.61v40.407h-60.61z" fill="#80e29d" transform="matrix(-1 0 0 -1 326.13 633.222)"/></g><g><path d="m39.825 296.408h60.61v40.407h-60.61z" fill="#80e29d" transform="matrix(-1 0 0 -1 140.26 633.222)"/></g><g><path d="m411.565 336.814h-32.325s-61.62 121.22-278.805 121.22h311.13z" fill="#86f1a7"/></g></g><g><g><path d="m100.435 94.375h404.065v121.22h-404.065z" fill="#e7a561"/></g><g><path d="m318.63 53.969h60.61v40.407h-60.61z" fill="#e49824"/></g><g><path d="m411.565 53.969h60.61v40.407h-60.61z" fill="#e49824"/></g><g><path d="m225.695 53.969h60.61v40.407h-60.61z" fill="#e49824" transform="matrix(-1 0 0 -1 512 148.344)"/></g><g><path d="m132.76 53.969h60.61v40.407h-60.61z" fill="#e49824" transform="matrix(-1 0 0 -1 326.13 148.344)"/></g><g><path d="m504.5 94.375h-32.325s-61.62 121.22-278.805 121.22h311.13z" fill="#e49542"/></g></g><g><g><path d="m193.37 215.595h218.195v121.22h-218.195z" fill="#df75a5"/></g><g><path d="m411.565 215.595h-22.67s-43.214 121.22-195.525 121.22h218.195z" fill="#dd5790"/></g></g><g><path d="m440.01 208.091h-332.08v-40.09c0-4.142-3.358-7.5-7.5-7.5s-7.5 3.358-7.5 7.5v47.59c0 4.142 3.358 7.5 7.5 7.5h85.44v65.817h-53.11c-4.142 0-7.5 3.358-7.5 7.5v32.903h-17.325v-32.903c0-4.142-3.358-7.5-7.5-7.5h-60.61c-4.142 0-7.5 3.358-7.5 7.5v32.903h-24.825c-4.142 0-7.5 3.358-7.5 7.5v32.44c0 4.142 3.358 7.5 7.5 7.5s7.5-3.358 7.5-7.5v-24.94l389.07.003v106.217h-389.07v-46.28c0-4.142-3.358-7.5-7.5-7.5s-7.5 3.358-7.5 7.5v53.78c0 4.142 3.358 7.5 7.5 7.5h404.07c4.143 0 7.5-3.358 7.5-7.5l-.005-234.94h20.944c4.143 0 7.5-3.358 7.5-7.5s-3.357-7.5-7.499-7.5zm-239.14 121.221v-106.217h203.195v106.217zm-60.61-25.404h45.61v25.403h-45.61zm-92.935 0h45.61v25.403h-45.61z"/><path d="m497 101.872v106.22h-22.01c-4.143 0-7.5 3.358-7.5 7.5s3.357 7.5 7.5 7.5h29.51c4.143 0 7.5-3.358 7.5-7.5v-121.22c0-4.142-3.357-7.5-7.5-7.5h-24.825v-32.903c0-4.142-3.357-7.5-7.5-7.5h-60.609c-4.143 0-7.5 3.358-7.5 7.5v32.903h-17.326v-32.903c0-4.142-3.357-7.5-7.5-7.5h-60.61c-4.143 0-7.5 3.358-7.5 7.5v32.903h-17.325v-32.903c0-4.142-3.357-7.5-7.5-7.5h-60.609c-4.142 0-7.5 3.358-7.5 7.5v32.903h-17.326v-32.903c0-4.142-3.358-7.5-7.5-7.5h-60.61c-4.142 0-7.5 3.358-7.5 7.5v32.903h-24.83c-4.142 0-7.5 3.358-7.5 7.5v38.63c0 4.142 3.358 7.5 7.5 7.5s7.5-3.358 7.5-7.5v-31.13zm-77.935-40.403h45.609v25.403h-45.609zm-92.935 0h45.61v25.403h-45.61zm-92.935 0h45.609v25.403h-45.609zm-92.935 0h45.61v25.403h-45.61z"/></g></g></svg>